<svg xmlns="http://www.w3.org/2000/svg" version="1.1" xmlns:xlink="http://www.w3.org/1999/xlink" xmlns:svgjs="http://svgjs.com/svgjs" width="300mm" height="300mm"><svg width="300mm" height="300mm" viewBox="0 0 300 300" version="1.1" id="SvgjsSvg1005" inkscape:export-filename="favicon512.png" inkscape:export-xdpi="43.349998" inkscape:export-ydpi="43.349998" inkscape:version="1.2.1 (9c6d41e4, 2022-07-14)" sodipodi:docname="favicon.svg" xmlns:inkscape="http://www.inkscape.org/namespaces/inkscape" xmlns:sodipodi="http://sodipodi.sourceforge.net/DTD/sodipodi-0.dtd" xmlns="http://www.w3.org/2000/svg" xmlns:svg="http://www.w3.org/2000/svg">
  <sodipodi:namedview id="SvgjsSodipodi:namedview1004" pagecolor="#ffffff" bordercolor="#000000" borderopacity="0.25" inkscape:showpageshadow="2" inkscape:pageopacity="0.0" inkscape:pagecheckerboard="0" inkscape:deskcolor="#d1d1d1" inkscape:document-units="mm" showgrid="false" inkscape:zoom="0.3345325" inkscape:cx="440.91382" inkscape:cy="967.02116" inkscape:window-width="1792" inkscape:window-height="997" inkscape:window-x="0" inkscape:window-y="25" inkscape:window-maximized="0" inkscape:current-layer="layer1"></sodipodi:namedview>
  <defs id="SvgjsDefs1003"></defs>
  <g inkscape:label="Layer 1" inkscape:groupmode="layer" id="SvgjsG1002">
    <path style="color:#000000;font-style:normal;font-variant:normal;font-weight:normal;font-stretch:normal;font-size:medium;line-height:normal;font-family:sans-serif;font-variant-ligatures:normal;font-variant-position:normal;font-variant-caps:normal;font-variant-numeric:normal;font-variant-alternates:normal;font-feature-settings:normal;text-indent:0;text-align:start;text-decoration:none;text-decoration-line:none;text-decoration-style:solid;text-decoration-color:#000000;letter-spacing:normal;word-spacing:normal;text-transform:none;writing-mode:lr-tb;direction:ltr;text-orientation:mixed;dominant-baseline:auto;baseline-shift:baseline;text-anchor:start;white-space:normal;shape-padding:0;clip-rule:nonzero;display:inline;overflow:visible;visibility:visible;isolation:auto;mix-blend-mode:normal;color-interpolation:sRGB;color-interpolation-filters:linearRGB;solid-color:#000000;solid-opacity:1;fill:#5b4b88;fill-opacity:1;fill-rule:nonzero;stroke:#ffffff;stroke-width:6.86143;stroke-linecap:butt;stroke-linejoin:miter;stroke-miterlimit:4;stroke-dasharray:none;stroke-dashoffset:0;stroke-opacity:1;color-rendering:auto;image-rendering:auto;shape-rendering:auto;text-rendering:auto;enable-background:accumulate" d="m 303.65815,-37.674868 v 35.3191758 h 20.11704 L 297.56467,23.500044 269.09679,51.476264 252.13065,68.179653 C 234.54859,55.848226 213.16611,48.374079 190.0465,48.374079 c -59.15879,0 -107.57214,47.662649 -107.57214,105.905611 0,58.24289 48.41335,105.90553 107.57214,105.90553 59.15888,0 107.57107,-47.66264 107.57107,-105.90553 0,-22.76169 -7.59266,-43.81311 -20.11704,-61.123884 L 294.4656,76.453378 322.88185,48.425074 349.14513,22.621423 v 19.80557 h 35.87459 V -37.674868 Z M 190.0465,83.693353 c 19.86395,0 37.62088,7.925323 50.63413,20.736127 13.01229,12.81083 21.06231,30.29382 21.06231,49.85021 0,39.11378 -31.96854,70.58637 -71.69644,70.58637 -39.7289,0 -71.69739,-31.47259 -71.69739,-70.58637 0,-39.11283 31.96849,-70.586337 71.69739,-70.586337 z" id="SvgjsPath1001" inkscape:label="male symbol"></path>
    <path style="color:#000000;font-style:normal;font-variant:normal;font-weight:normal;font-stretch:normal;font-size:medium;line-height:normal;font-family:sans-serif;font-variant-ligatures:normal;font-variant-position:normal;font-variant-caps:normal;font-variant-numeric:normal;font-variant-alternates:normal;font-feature-settings:normal;text-indent:0;text-align:start;text-decoration:none;text-decoration-line:none;text-decoration-style:solid;text-decoration-color:#000000;letter-spacing:normal;word-spacing:normal;text-transform:none;writing-mode:lr-tb;direction:ltr;text-orientation:mixed;dominant-baseline:auto;baseline-shift:baseline;text-anchor:start;white-space:normal;shape-padding:0;clip-rule:nonzero;display:inline;overflow:visible;visibility:visible;isolation:auto;mix-blend-mode:normal;color-interpolation:sRGB;color-interpolation-filters:linearRGB;solid-color:#000000;solid-opacity:1;fill:#469967;fill-opacity:1;fill-rule:nonzero;stroke:#ffffff;stroke-width:6.86143;stroke-linecap:butt;stroke-linejoin:miter;stroke-miterlimit:10;stroke-dasharray:none;stroke-dashoffset:0;stroke-opacity:1;color-rendering:auto;image-rendering:auto;shape-rendering:auto;text-rendering:auto;enable-background:accumulate" d="m 112.5709,46.936072 c -59.158944,0 -107.5712014,47.662653 -107.5712014,105.905608 0,52.20275 38.9971394,95.64454 89.6597704,104.14736 v 54.71153 H 22.910147 v 35.31914 h 71.749322 v 70.58646 h 35.822821 v -70.58646 h 71.74934 v -35.31914 h -71.74934 v -54.71153 c 50.66267,-8.50582 89.65979,-51.94461 89.65979,-104.14736 0,-58.242955 -48.41224,-105.905608 -107.57118,-105.905608 z m 0,35.319273 c 39.7289,0 71.69642,31.472575 71.69642,70.586335 0,39.11284 -31.96752,70.63846 -71.69642,70.63846 -39.727952,0 -71.696471,-31.52562 -71.696471,-70.63846 0,-39.11376 31.968519,-70.586335 71.696471,-70.586335 z" id="SvgjsPath1000" inkscape:label="female symbol"></path>
  </g>
</svg><style>@media (prefers-color-scheme: light) { :root { filter: none; } }
@media (prefers-color-scheme: dark) { :root { filter: contrast(0.8333333333333334) brightness(1.7); } }
</style></svg>