<?xml version="1.0" encoding="UTF-8" standalone="no"?>
<!-- Created with Inkscape (http://www.inkscape.org/) -->

<svg
   xmlns:dc="http://purl.org/dc/elements/1.1/"
   xmlns:cc="http://creativecommons.org/ns#"
   xmlns:rdf="http://www.w3.org/1999/02/22-rdf-syntax-ns#"
   xmlns:svg="http://www.w3.org/2000/svg"
   xmlns="http://www.w3.org/2000/svg"
   xmlns:sodipodi="http://sodipodi.sourceforge.net/DTD/sodipodi-0.dtd"
   xmlns:inkscape="http://www.inkscape.org/namespaces/inkscape"
   width="450"
   height="600"
   viewBox="0 0 119.0625 158.75"
   version="1.1"
   id="svg1534"
   inkscape:version="0.92.3 (2405546, 2018-03-11)"
   sodipodi:docname="No image (female).svg">
  <defs
     id="defs1528" />
  <sodipodi:namedview
     id="base"
     pagecolor="#ffffff"
     bordercolor="#666666"
     borderopacity="1.0"
     inkscape:pageopacity="0.0"
     inkscape:pageshadow="2"
     inkscape:zoom="0.7"
     inkscape:cx="133.30292"
     inkscape:cy="212.16954"
     inkscape:document-units="mm"
     inkscape:current-layer="layer1"
     showgrid="false"
     fit-margin-top="0"
     fit-margin-left="0"
     fit-margin-right="0"
     fit-margin-bottom="0"
     units="px"
     inkscape:window-width="1920"
     inkscape:window-height="991"
     inkscape:window-x="-10"
     inkscape:window-y="-10"
     inkscape:window-maximized="1" />
  <metadata
     id="metadata1531">
    <rdf:RDF>
      <cc:Work
         rdf:about="">
        <dc:format>image/svg+xml</dc:format>
        <dc:type
           rdf:resource="http://purl.org/dc/dcmitype/StillImage" />
        <dc:title></dc:title>
      </cc:Work>
    </rdf:RDF>
  </metadata>
  <g
     inkscape:label="Laag 1"
     inkscape:groupmode="layer"
     id="layer1"
     transform="translate(369.86862,56.256572)">
    <g
       transform="matrix(2.1126755,0,0,2.1126755,-166.13551,-366.38097)"
       id="g1515">
      <rect
         y="146.79227"
         x="-96.433685"
         height="75.141663"
         width="56.356251"
         id="rect881"
         style="opacity:1;vector-effect:none;fill:#e6e6e6;fill-opacity:1;stroke:none;stroke-width:2.01099992;stroke-linecap:round;stroke-linejoin:round;stroke-miterlimit:4;stroke-dasharray:none;stroke-dashoffset:0;stroke-opacity:1;paint-order:normal" />
      <path
         inkscape:connector-curvature="0"
         id="path4-6"
         d="m -70.52624,155.46493 c -1.36167,0.0113 -3.03378,0.52017 -4.97334,1.75958 -3.15388,2.01538 -3.86435,2.60586 -5.53558,5.34799 -0.68581,1.12525 -1.67587,4.31602 -1.67587,4.31602 -0.75735,0.20354 -1.24013,0.88366 -1.56011,1.84743 -0.53401,0.16308 -0.72453,0.5126 -1.08417,1.47795 -0.56362,0.47482 -0.77971,-0.0572 -1.1007,-0.28526 0.54179,1.17021 -0.61486,3.78573 0.0987,4.85345 -0.56444,0.24215 -0.74249,0.7277 -0.73949,1.32706 -0.50545,0.45357 -0.9576,0.0683 -1.46193,-0.2186 0,0 -0.0912,0.9951 1.64279,1.1927 2.24656,0.25599 -1.97145,0.33589 -1.97145,0.33589 l 1.01854,0.23513 c -0.48532,0.27979 -0.96453,0.44279 -1.54409,0.11731 0.32079,2.23197 -1.0775,3.95687 1.26504,6.78511 -0.3121,-0.17797 -0.49301,-0.29561 -0.80512,-0.77256 -0.0473,0.90311 -0.27213,1.87649 0.21394,2.56987 l 0.29559,0.82269 c 0.35675,2.52998 1.65899,2.3306 2.71043,2.85512 1.06253,1.75643 2.10217,3.56538 4.40231,2.48564 0.002,1.81902 0.92431,1.66349 1.77406,1.66294 0.32961,0.69008 1.24803,1.17935 3.02203,1.37718 0.49327,2.12776 0.94466,6.06502 -1.28106,7.99434 -3.5684,3.09319 -5.30492,4.07552 -9.5436,5.12217 -4.78366,1.18123 -7.45486,2.92912 -9.07438,4.90461 v 8.35505 h 56.35625 v -8.87026 c -1.62157,-1.73346 -4.19197,-3.20153 -8.58139,-4.13722 -5.22787,-1.11443 -6.47515,-2.09495 -10.56215,-5.42499 -2.46222,-2.00622 -1.83361,-6.04762 -1.03508,-7.7928 0.72363,-0.65963 1.12122,-1.25952 1.62626,-2.48564 1.0035,0.17361 2.9205,0.21015 3.21996,-0.10077 0.89107,-0.42047 2.01618,-3.86876 4.07365,-5.13922 0.30018,-0.12762 0.56945,-0.31462 0.81236,-0.55346 0.67732,-1.04744 2.59358,-0.21048 2.34456,-2.42569 -0.0591,2.20028 -1.5755,1.07002 -1.36116,0.56069 0.33613,-0.7987 0.52552,-1.10255 0.75034,-2.18333 0.87144,-0.99576 2.40194,-0.68151 2.56264,-3.09025 0.26815,-1.02785 0.83431,-1.36229 0.50901,-1.86397 -0.90921,1.68195 -0.98749,-0.62968 -1.47846,-0.95756 1.64959,0.34859 1.99942,-0.47366 1.95492,-1.67949 -0.43707,0.49549 -0.73502,0.25255 -0.96946,0.16795 0.3607,-0.11398 0.31744,-0.82869 0.36174,-1.22576 -0.15331,0.20638 -0.30661,0.80754 -0.45992,0.53743 0.25598,-1.37622 -0.0904,-2.17547 -0.52607,-2.88871 0.2874,1.1121 0.25844,2.70517 -1.05109,2.14974 0.55484,-0.76784 0.61344,-1.56007 0.52554,-2.2841 -0.39423,0.86068 -0.78811,1.70523 -1.18235,1.20923 -0.039,-0.17099 0.0666,-0.7456 -0.13178,-1.20923 0,0 0.0226,0.012 -0.26251,0.53744 -0.40144,0.73995 -0.62733,-0.22575 -0.45992,-0.47026 -0.28473,0.18583 -0.56949,0.3009 -0.85421,0 -0.19914,-0.48987 0.0553,-1.14848 0.32814,-1.81384 -1.42874,2.56851 -1.39094,0.91895 -4.79609,-6.44922 -2.34178,-5.06722 -4.30398,-5.51217 -6.62027,-6.91017 -3.15758,-1.90574 -4.04885,-0.68833 -5.20691,-0.68833 -0.40245,0 -0.98326,-0.0631 -1.87276,-0.5209 -0.5842,-0.30068 -1.28933,-0.47292 -2.10633,-0.46612 z"
         style="fill:#bebebe;fill-opacity:1;stroke-width:0.34651798" />
    </g>
  </g>
</svg>
